<svg xmlns="http://www.w3.org/2000/svg" version="1.1" xmlns:xlink="http://www.w3.org/1999/xlink" xmlns:svgjs="http://svgjs.dev/svgjs" width="1500" height="1500" viewBox="0 0 1500 1500"><rect width="1500" height="1500" fill="#000000"></rect><g transform="matrix(0.6666666666666666,0,0,0.6666666666666666,249.39393939393938,630.4546417514208)"><svg viewBox="0 0 396 95" data-background-color="#162836" preserveAspectRatio="xMidYMid meet" height="359" width="1500" xmlns="http://www.w3.org/2000/svg" xmlns:xlink="http://www.w3.org/1999/xlink"><g id="tight-bounds" transform="matrix(1,0,0,1,0.2400000000000091,-0.04815167013219934)"><svg viewBox="0 0 395.52 95.09630334026443" height="95.09630334026443" width="395.52"><g><svg viewBox="0 0 538.2258450750762 129.40758553001015" height="95.09630334026443" width="395.52"><g transform="matrix(1,0,0,1,142.70584507507627,36.5385842197355)"><svg viewBox="0 0 395.52 56.33041709053916" height="56.33041709053916" width="395.52"><g id="textblocktransform"><svg viewBox="0 0 395.52 56.33041709053916" height="56.33041709053916" width="395.52" id="textblock"><g><svg viewBox="0 0 395.52 56.33041709053916" height="56.33041709053916" width="395.52"><g transform="matrix(1,0,0,1,0,0)"><svg width="395.52" viewBox="2.45 -35 245.73000000000002 35" height="56.33041709053916" data-palette-color="#cf7650"><path d="M42.85-10L42.85-10Q42.85-7.25 41.5-4.98 40.15-2.7 37.9-1.35 35.65 0 32.85 0L32.85 0 2.45 0 2.45-5 32.85-5Q34.95-5 36.4-6.48 37.85-7.95 37.85-10L37.85-10Q37.85-12.05 36.4-13.53 34.95-15 32.85-15L32.85-15 12.45-15Q9.7-15 7.43-16.35 5.15-17.7 3.8-19.98 2.45-22.25 2.45-25L2.45-25Q2.45-27.75 3.8-30.03 5.15-32.3 7.43-33.65 9.7-35 12.45-35L12.45-35 40.35-35 40.35-30 12.45-30Q10.4-30 8.93-28.53 7.45-27.05 7.45-25L7.45-25Q7.45-22.95 8.93-21.48 10.4-20 12.45-20L12.45-20 32.85-20Q35.65-20 37.9-18.65 40.15-17.3 41.5-15.03 42.85-12.75 42.85-10ZM53.05-27.5L53.05 0 48.1 0 48.1-27.5 53.05-27.5ZM92.84-13.85L92.84-13.85Q92.84-10 91.25-6.85 89.65-3.7 86.75-1.85 83.84 0 80 0L80 0 67.7 0 67.7-5.05 80-5.05Q82.45-5.05 84.17-6.23 85.9-7.4 86.84-9.4 87.8-11.4 87.8-13.85L87.8-13.85Q87.8-16.3 86.84-18.25 85.9-20.2 84.17-21.38 82.45-22.55 80-22.55L80-22.55 65.34-22.55 65.34 0 60.25 0 60.25-27.6 80-27.6Q83.84-27.6 86.75-25.75 89.65-23.9 91.25-20.8 92.84-17.7 92.84-13.85ZM127.09-5.05L127.09 0 98.39 0 98.39-27.6 127.09-27.6 127.09-22.55 103.44-22.55 103.44-5.05 127.09-5.05ZM123.89-16.45L123.89-11.4 105.79-11.4 105.79-16.45 123.89-16.45ZM149.09-16.05L165.19 0 158.44 0 145.24-13.25 137.64-7.75 137.64 0 132.64 0 132.64-27.5 137.64-27.5 137.64-13.5 157.29-27.5 164.94-27.5 149.09-16.05ZM173.94-27.5L173.94 0 168.99 0 168.99-27.5 173.94-27.5ZM210.09-5.05L210.09 0 192.34 0Q188.49 0 185.59-1.85 182.69-3.7 181.09-6.85 179.49-10 179.49-13.85L179.49-13.85Q179.49-17.7 181.09-20.8 182.69-23.9 185.59-25.75 188.49-27.6 192.34-27.6L192.34-27.6 210.09-27.6 210.09-22.55 192.34-22.55Q189.94-22.55 188.19-21.38 186.44-20.2 185.49-18.25 184.54-16.3 184.54-13.85L184.54-13.85Q184.54-11.4 185.49-9.4 186.44-7.4 188.19-6.23 189.94-5.05 192.34-5.05L192.34-5.05 210.09-5.05ZM232.08-16.05L248.18 0 241.43 0 228.23-13.25 220.63-7.75 220.63 0 215.63 0 215.63-27.5 220.63-27.5 220.63-13.5 240.28-27.5 247.93-27.5 232.08-16.05Z" opacity="1" transform="matrix(1,0,0,1,0,0)" fill="#ffffff" class="wordmark-text-0" data-fill-palette-color="primary" id="text-0"></path></svg></g></svg></g></svg></g></svg></g><g><svg viewBox="0 0 129.40758553001015 129.40758553001015" height="129.40758553001015" width="129.40758553001015"><g><svg></svg></g><g id="icon-0"><svg viewBox="0 0 129.40758553001015 129.40758553001015" height="129.40758553001015" width="129.40758553001015"><g><rect width="117.66504536154626" height="117.66504536154626" x="5.871270084231945" y="5.871270084231945" fill="#ffffff" data-fill-palette-color="accent"></rect><rect width="117.66504536154626" height="117.66504536154626" x="11.742540168463886" y="3.552713678800501e-15" fill="#ffffff" opacity="0.5" data-fill-palette-color="accent"></rect></g><g transform="matrix(1,0,0,1,16.775057383519837,26.152507548740402)"><svg viewBox="0 0 95.85747076297048 77.10257043252935" height="77.10257043252935" width="95.85747076297048"><g><svg xmlns="http://www.w3.org/2000/svg" xmlns:xlink="http://www.w3.org/1999/xlink" version="1.1" x="0" y="0" viewBox="25.99917345722948 70.99999998856896 460.0010607565511 370.0000000388193" style="enable-background:new 0 0 512 512;" xml:space="preserve" height="77.10257043252935" width="95.85747076297048" class="icon-dxe-0" data-fill-palette-color="quaternary" id="dxe-0"><g fill="#162836" data-fill-palette-color="quaternary"><g fill="#162836" data-fill-palette-color="quaternary"><g fill="#162836" data-fill-palette-color="quaternary"><path d="M246 441H156C150.477 441 146 436.522 146 431V391C146 385.478 150.477 381 156 381H246C251.523 381 256 385.478 256 391V431C256 436.522 251.522 441 246 441M166 421H236V401H166z" fill="#000000" data-fill-palette-color="quaternary"></path></g><g fill="#162836" data-fill-palette-color="quaternary"><path d="M116 441H36A10 10 0 0 1 26.252 428.771L106.252 78.771A10 10 0 0 1 116 71H156C161.523 71 166 75.477 166 81V275.444C166 276.284 165.894 277.121 165.685 277.934L125.685 433.49A10 10 0 0 1 116 441M48.543 421H108.246L146 274.179V91H123.972z" fill="#000000" data-fill-palette-color="quaternary"></path></g><g fill="#162836" data-fill-palette-color="quaternary"><path d="M246 441H156C150.477 441 146 436.522 146 431V81C146 75.477 150.477 71 156 71H246C251.523 71 256 75.477 256 81V431C256 436.522 251.522 441 246 441M166 421H236V91H166z" fill="#000000" data-fill-palette-color="quaternary"></path></g><g fill="#162836" data-fill-palette-color="quaternary"><path d="M116 441H36A10 10 0 0 1 26.298 428.574L36.298 388.574A10 10 0 0 1 46 381H126A10 10 0 0 1 135.702 393.426L125.702 433.426A10 10 0 0 1 116 441M48.807 421H108.192L113.192 401H53.807z" fill="#000000" data-fill-palette-color="quaternary"></path></g><g fill="#162836" data-fill-palette-color="quaternary"><path d="M336 441H246C240.477 441 236 436.522 236 431V81C236 75.477 240.477 71 246 71H336C341.522 71 346 75.477 346 81V431C346 436.522 341.522 441 336 441M256 421H326V91H256z" fill="#000000" data-fill-palette-color="quaternary"></path></g><g fill="#162836" data-fill-palette-color="quaternary"><path d="M336 441H246C240.477 441 236 436.522 236 431V391C236 385.478 240.477 381 246 381H336C341.522 381 346 385.478 346 391V431C346 436.522 341.522 441 336 441M255.999 421H326V401H255.999z" fill="#000000" data-fill-palette-color="quaternary"></path></g><g fill="#162836" data-fill-palette-color="quaternary"><path d="M426 441H336A10.002 10.002 0 0 1 326.1 429.586L376.1 79.586A10 10 0 0 1 386 71H476A10.002 10.002 0 0 1 485.9 82.414L435.9 432.414A10 10 0 0 1 426 441M347.53 421H417.327L464.47 91H394.673z" fill="#000000" data-fill-palette-color="quaternary"></path></g><g fill="#162836" data-fill-palette-color="quaternary"><path d="M426 441H336C330.478 441 326 436.522 326 431V391C326 385.478 330.478 381 336 381H426C431.522 381 436 385.478 436 391V431C436 436.522 431.522 441 426 441M346 421H416V401H346z" fill="#000000" data-fill-palette-color="quaternary"></path></g><g fill="#162836" data-fill-palette-color="quaternary"><path d="M336 221H196C190.477 221 186 216.523 186 211V161C186 155.477 190.477 151 196 151H336C341.522 151 346 155.477 346 161V211C346 216.523 341.522 221 336 221M206 201H326V171H206z" fill="#000000" data-fill-palette-color="quaternary"></path></g><g fill="#162836" data-fill-palette-color="quaternary"><path d="M466 131H386C380.478 131 376 126.523 376 121S380.478 111 386 111H466C471.522 111 476 115.477 476 121S471.522 131 466 131" fill="#000000" data-fill-palette-color="quaternary"></path></g><rect x="186" y="241" width="20" height="20" fill="#000000" data-fill-palette-color="quaternary"></rect><rect x="186" y="271" width="20" height="20" fill="#000000" data-fill-palette-color="quaternary"></rect><rect x="286" y="301" width="20" height="20" fill="#000000" data-fill-palette-color="quaternary"></rect><rect x="286" y="331" width="20" height="20" fill="#000000" data-fill-palette-color="quaternary"></rect><rect x="186" y="301" width="20" height="20" fill="#000000" data-fill-palette-color="quaternary"></rect></g></g></svg></g></svg></g></svg></g></svg></g></svg></g><defs></defs></svg><rect width="395.52" height="95.09630334026443" fill="none" stroke="none" visibility="hidden"></rect></g></svg></g></svg>